<svg xmlns="http://www.w3.org/2000/svg" width="4377" height="3255" viewBox="0 0 4377 3255" version="1.1">
	<path d="M 1584.568 14.075 C 1573.831 37.549, 1544.696 174.497, 1515.235 339.972 L 1511.412 361.444 1519.565 371.193 C 1540.041 395.681, 1556.182 423.267, 1560.134 440.532 C 1562.851 452.402, 1561.711 497.226, 1557.894 528.627 L 1556.784 537.753 1552.830 539.976 C 1548.242 542.554, 1546.605 545.830, 1548.030 549.578 C 1548.876 551.805, 1549.419 552.067, 1552.005 551.499 C 1554.693 550.909, 1555 551.091, 1555 553.280 C 1555 555.190, 1553.752 556.455, 1549.250 559.110 C 1543.777 562.337, 1543.485 562.712, 1543.185 566.895 L 1542.871 571.290 1547.435 570.664 C 1551.897 570.052, 1551.999 570.100, 1551.975 572.769 C 1551.953 575.163, 1550.362 576.525, 1539.076 583.813 C 1521.028 595.467, 1514 602.877, 1514 610.253 C 1514 611.527, 1514.951 615.254, 1516.113 618.535 C 1519.493 628.080, 1518.395 641.938, 1512.033 670 C 1503.624 707.090, 1501 724.406, 1501 742.807 C 1501 766.551, 1503.809 786.290, 1511.628 817.500 C 1517.581 841.261, 1532.092 883.039, 1542.541 906.500 L 1545.213 912.500 1548.581 902.604 C 1557.420 876.628, 1565.692 865.325, 1591.500 843.955 C 1610.999 827.810, 1619.190 818.562, 1625.967 805.042 C 1633.167 790.677, 1636.450 778.959, 1640.543 753 C 1645.979 718.530, 1662.586 695.188, 1683.075 693.219 C 1685.784 692.959, 1688 692.631, 1688 692.492 C 1688 691.794, 1669.915 674.837, 1658 664.364 C 1631.461 641.036, 1607.945 623.348, 1587.030 610.983 C 1569.570 600.660, 1561.053 597.195, 1546.250 594.388 C 1542.912 593.756, 1543.517 592.314, 1547.701 590.934 C 1555.614 588.322, 1607.713 562.981, 1621.242 555.163 C 1625.695 552.590, 1626.368 548.664, 1624.031 538.913 C 1622.922 534.286, 1622.011 528.839, 1622.007 526.809 C 1622.003 524.779, 1621.589 522.864, 1621.087 522.554 C 1619.587 521.627, 1618.658 513.942, 1619.896 512.704 C 1621.744 510.856, 1621.181 506.240, 1618.914 504.653 C 1617.250 503.487, 1616.541 501.203, 1615.404 493.346 C 1612.978 476.585, 1612.518 454.870, 1614.364 444.333 C 1617.757 424.980, 1632.236 399.161, 1655.327 371.294 C 1661.485 363.862, 1663.367 360.897, 1663.132 359 C 1660.790 340.116, 1628.810 173.438, 1616.604 116.500 C 1604.091 58.132, 1592.262 13.862, 1588.054 9.654 C 1587.382 8.982, 1586.229 10.444, 1584.568 14.075 M 1588.030 231.583 C 1588.048 356.729, 1588.434 448.861, 1588.937 448 C 1589.418 447.175, 1592.327 440.813, 1595.401 433.863 L 1600.991 421.225 1599.994 377.863 C 1596.654 232.534, 1594.038 135.859, 1591.989 82 C 1590.732 48.962, 1588.915 14.635, 1588.394 14.083 C 1588.177 13.854, 1588.014 111.729, 1588.030 231.583 M 2679.241 567.713 C 2667.864 594.447, 2641.473 721.158, 2611.996 890.582 L 2607.806 914.663 2616.559 925.544 C 2628.688 940.622, 2640.168 958.303, 2647.046 972.500 C 2655.876 990.723, 2656.495 993.756, 2656.339 1018 C 2656.262 1029.830, 2655.615 1042.354, 2654.808 1047.612 L 2653.410 1056.725 2658.358 1059.506 C 2661.080 1061.036, 2674.122 1068.738, 2687.342 1076.622 C 2700.561 1084.506, 2711.449 1090.854, 2711.536 1090.728 C 2711.624 1090.603, 2711.129 1085.550, 2710.436 1079.500 C 2706.678 1046.667, 2705.866 1010.848, 2708.529 995.381 C 2711.370 978.876, 2726.655 951.199, 2746.798 926.084 C 2753.431 917.813, 2755.828 914.093, 2755.497 912.584 C 2755.245 911.438, 2753.427 901.050, 2751.456 889.500 C 2743.206 841.151, 2724.920 742.509, 2715.399 695 C 2700.504 620.678, 2686.441 564.647, 2682.337 563.279 C 2681.755 563.085, 2680.361 565.080, 2679.241 567.713 M 1852.680 592.750 L 1839.100 615.500 1840.508 621.458 C 1841.283 624.736, 1841.823 627.503, 1841.708 627.609 C 1841.594 627.714, 1837.806 629.221, 1833.291 630.957 C 1807.168 641.002, 1787.015 663.278, 1778.329 691.712 C 1775.891 699.691, 1775.645 701.973, 1775.653 716.500 C 1775.663 734.214, 1777.069 741.580, 1782.887 754.410 C 1792.860 776.407, 1813.070 795.210, 1835.277 803.153 C 1844.926 806.605, 1844.288 805.696, 1842.431 813.345 C 1841.934 815.390, 1842.732 816.208, 1848.681 819.750 C 1852.431 821.983, 1856.568 824.954, 1857.874 826.352 C 1860.024 828.653, 1860.190 829.487, 1859.632 835.197 C 1857.630 855.697, 1857.619 854.906, 1860.028 862.588 C 1862.961 871.940, 1862.181 874.135, 1854.745 877.469 L 1849.500 879.821 1853.500 881.518 C 1857.493 883.212, 1858.033 883.593, 1863.295 888.430 C 1866.661 891.524, 1867.599 891.614, 1869.232 889 C 1869.919 887.900, 1871.044 887, 1871.732 887 C 1872.420 887, 1873.545 886.100, 1874.232 885 C 1874.919 883.900, 1875.837 883, 1876.273 883 C 1876.708 883, 1878.737 882.297, 1880.782 881.438 L 1884.500 879.876 1879 877.188 C 1871.721 873.631, 1870.853 871.213, 1873.821 862.762 C 1876.398 855.424, 1876.539 850.579, 1874.511 839.055 C 1873.186 831.524, 1873.190 830.359, 1874.549 828.286 C 1876.308 825.601, 1882.777 820.703, 1888.348 817.838 C 1891.510 816.212, 1892.085 815.470, 1891.574 813.680 C 1889.418 806.128, 1889.213 806.504, 1896.841 804.051 C 1912.034 799.166, 1929.775 786.518, 1939.694 773.500 C 1960.127 746.680, 1964.923 712.380, 1952.509 681.829 C 1946.182 666.260, 1932.611 649.549, 1918.881 640.421 C 1912.010 635.853, 1898.214 629.013, 1895.816 628.985 C 1892.316 628.944, 1891.816 627.512, 1893.112 621.236 L 1894.364 615.177 1880.932 592.616 C 1873.544 580.207, 1867.221 570.042, 1866.880 570.027 C 1866.539 570.012, 1860.149 580.237, 1852.680 592.750 M 2680.164 576 C 2680.063 578.475, 2679.545 589.050, 2679.012 599.500 C 2676.666 645.492, 2672.298 804.604, 2669.485 946.500 L 2668.910 975.500 2674.817 988.815 L 2680.724 1002.130 2681.329 823.315 C 2681.662 724.967, 2681.577 628.075, 2681.141 608 C 2680.704 587.925, 2680.265 573.525, 2680.164 576 M 1718.669 651.619 C 1715.201 667.005, 1714.519 673.111, 1714.549 688.500 C 1714.585 707.001, 1715.879 713.679, 1721.928 726.588 C 1732.472 749.088, 1764.413 788.184, 1792.845 813.390 C 1798.980 818.829, 1804 823.647, 1804 824.095 C 1804 824.543, 1802.425 825.205, 1800.500 825.566 C 1797.638 826.103, 1797 826.667, 1797 828.657 C 1797 829.996, 1798.022 832.113, 1799.272 833.363 C 1801.097 835.188, 1801.475 836.505, 1801.196 840.067 C 1800.511 848.803, 1808.689 856.058, 1819 855.861 C 1822.052 855.803, 1826.223 856.478, 1828.372 857.378 C 1833.496 859.524, 1835.468 859.427, 1840.151 856.795 C 1843.500 854.913, 1844.517 854.757, 1847.094 855.729 C 1850.813 857.133, 1851.853 855.474, 1850.023 851.056 C 1848.648 847.737, 1849.203 845.225, 1852.030 841.966 C 1854.955 838.593, 1854.620 836.626, 1851.250 837.390 C 1840.878 839.741, 1839.966 839.412, 1836.748 832.154 C 1835.198 828.657, 1833.912 827.413, 1830.161 825.781 C 1823.790 823.010, 1822 821.220, 1822 817.622 C 1822 815.266, 1822.962 813.726, 1826.146 810.984 C 1829.815 807.824, 1830.160 807.168, 1829.147 805.274 C 1828.517 804.098, 1827.008 802.820, 1825.794 802.435 C 1824.061 801.885, 1823.002 802.433, 1820.877 804.978 C 1819.067 807.147, 1817.726 807.956, 1816.834 807.420 C 1810.464 803.589, 1786.271 778.393, 1772.559 761.309 C 1755.180 739.656, 1737.028 707.507, 1729.756 685.500 C 1725.919 673.889, 1722.010 656.458, 1721.985 650.843 C 1721.954 644.090, 1720.277 644.483, 1718.669 651.619 M 2010.631 648.500 C 2005.914 676.876, 2001.855 689.934, 1990.891 712 C 1979.008 735.914, 1965.262 755.714, 1943.970 779.582 C 1933.911 790.858, 1915.999 808, 1914.275 808 C 1913.760 808, 1912.740 806.882, 1912.009 805.517 C 1910.228 802.189, 1907.331 801.390, 1904.928 803.565 C 1902.181 806.052, 1902.539 808.536, 1906.002 811.001 C 1910.512 814.213, 1911.309 816.325, 1909.574 820.477 C 1908.764 822.415, 1907.546 824, 1906.867 824 C 1906.187 824, 1903.715 824.928, 1901.373 826.061 C 1898.274 827.562, 1896.819 829.019, 1896.028 831.414 C 1895.431 833.225, 1893.848 835.734, 1892.510 836.990 C 1890.029 839.321, 1889.368 839.344, 1880.750 837.390 C 1877.219 836.590, 1877.165 838.219, 1880.588 842.287 C 1882.696 844.792, 1883.065 846.026, 1882.575 848.932 C 1881.172 857.259, 1880.921 856.908, 1887.212 855.422 C 1889.055 854.987, 1890.439 855.297, 1891.532 856.389 C 1894.189 859.046, 1897.930 859.420, 1903.131 857.550 C 1905.793 856.593, 1910.829 855.737, 1914.322 855.648 C 1919.590 855.514, 1921.299 855.009, 1924.338 852.691 C 1929.233 848.958, 1931.265 844.797, 1930.835 839.388 C 1930.616 836.636, 1930.930 834.857, 1931.686 834.567 C 1933.673 833.805, 1936.087 829.389, 1935.439 827.702 C 1935.106 826.833, 1933.526 825.835, 1931.928 825.484 C 1930.330 825.133, 1928.807 824.497, 1928.544 824.071 C 1928.280 823.645, 1932.787 819.132, 1938.559 814.042 C 1965.075 790.660, 1996.086 753.516, 2007.889 731 C 2015.904 715.711, 2017.483 708.702, 2017.461 688.500 C 2017.442 671.640, 2016.023 659.932, 2012.674 649 L 2011.296 644.500 2010.631 648.500 M 1837.884 659.654 C 1828.008 664.541, 1814.901 677.570, 1810.218 687.158 C 1798.919 710.286, 1801.146 735.274, 1816.326 755.712 C 1823.630 765.545, 1838.234 775.769, 1847.566 777.581 L 1850.631 778.176 1851.902 768.460 C 1855.204 743.228, 1855.071 710.792, 1851.557 684.140 C 1848.301 659.439, 1847.681 656, 1846.483 656 C 1845.815 656, 1841.946 657.644, 1837.884 659.654 M 1885.070 662.750 C 1880.141 692.688, 1878.221 722.916, 1879.804 745.654 C 1880.448 754.919, 1881.495 766.166, 1882.129 770.648 L 1883.283 778.795 1888.727 776.922 C 1903.566 771.817, 1916.975 759.977, 1923.873 745.889 C 1929.170 735.070, 1931 727.639, 1931 716.950 C 1931 691.730, 1917.120 669.640, 1894.500 658.861 C 1891.200 657.288, 1887.978 656.001, 1887.340 656.001 C 1886.685 656, 1885.698 658.935, 1885.070 662.750 M 1808.481 827.585 C 1807.100 828.165, 1807.412 840.034, 1808.881 842.778 C 1810.576 845.945, 1815.173 847.993, 1820.700 848.044 C 1823.340 848.068, 1827.270 848.718, 1829.434 849.489 C 1833.801 851.045, 1835 850.745, 1835 848.096 C 1835 846.016, 1832.809 843.904, 1828.260 841.600 C 1826.314 840.614, 1824.172 838.269, 1822.897 835.729 C 1819.568 829.097, 1817.175 826.988, 1813.076 827.079 C 1811.109 827.122, 1809.041 827.350, 1808.481 827.585 M 1912.256 830.900 C 1910.740 833.045, 1908.731 836.199, 1907.791 837.909 C 1906.852 839.619, 1904.827 841.495, 1903.293 842.079 C 1899.532 843.509, 1897 845.929, 1897 848.096 C 1897 850.745, 1898.199 851.045, 1902.566 849.489 C 1904.730 848.718, 1908.660 848.068, 1911.300 848.044 C 1916.342 847.998, 1920.683 846.292, 1923.066 843.420 C 1924.731 841.414, 1925.090 828.905, 1923.515 827.765 C 1922.957 827.361, 1920.815 827.024, 1918.756 827.015 C 1915.535 827.002, 1914.628 827.544, 1912.256 830.900 M 1978 1032.411 L 1978 1109.823 1983.750 1108.458 C 2026.172 1098.388, 2058.325 1078.687, 2075.363 1052.324 C 2083.579 1039.612, 2089 1022.475, 2089 1009.213 C 2089 1003.468, 2088.875 1003.203, 2083.250 996.983 C 2064.965 976.766, 2033.798 962.855, 1993.500 956.923 C 1986.350 955.870, 1979.938 955.007, 1979.250 955.005 C 1978.261 955.001, 1978 971.146, 1978 1032.411 M 2340 1057.699 C 2310.478 1059.995, 2278.954 1068.013, 2257.663 1078.641 C 2227.164 1093.866, 2204.586 1117.725, 2196.474 1143.302 C 2194.025 1151.024, 2194 1151.484, 2194 1188.476 L 2194 1225.849 2184.250 1234.856 C 2110.193 1303.272, 2018.678 1350.926, 1923.714 1370.524 C 1884.418 1378.633, 1855.208 1381.503, 1812.500 1381.451 C 1780.421 1381.413, 1762.440 1380.132, 1743.575 1376.544 C 1739.684 1375.803, 1736.377 1375.314, 1736.227 1375.455 C 1736.077 1375.596, 1738.584 1379.714, 1741.798 1384.606 C 1789.258 1456.850, 1918.877 1532.153, 2122.775 1605.938 C 2154.110 1617.277, 2193.329 1630.449, 2225.500 1640.438 C 2240.900 1645.220, 2260.475 1651.325, 2269 1654.004 C 2286.431 1659.483, 2298.837 1663, 2300.730 1663 C 2301.746 1663, 2302 1647.577, 2302 1585.969 C 2302 1513.546, 2302.105 1508.894, 2303.750 1508.219 C 2307.498 1506.679, 2370.933 1507.511, 2388.500 1509.329 C 2460.473 1516.780, 2538.501 1533.946, 2619.750 1560.205 L 2645 1568.365 2645 1706.038 L 2645 1843.711 2651.750 1844.348 C 2655.463 1844.699, 2672.338 1844.989, 2689.250 1844.993 L 2720 1845 2720 1649.007 L 2720 1453.014 2716.387 1443.988 C 2709.713 1427.312, 2701.099 1416.298, 2681.715 1399.659 C 2665.996 1386.166, 2653.753 1373.397, 2649.169 1365.718 C 2640.786 1351.671, 2635.413 1334.808, 2631.953 1311.684 C 2626.069 1272.366, 2613.004 1251.555, 2590.680 1245.940 L 2585.860 1244.727 2589.680 1240.774 C 2601.594 1228.444, 2638.867 1195.923, 2655.529 1183.320 C 2667.802 1174.036, 2685.503 1162.685, 2695.500 1157.687 C 2704.489 1153.193, 2715.575 1149, 2718.468 1149 C 2719.488 1149, 2720 1148.041, 2720 1146.128 C 2720 1143.439, 2719.319 1142.956, 2709.250 1138.511 C 2696.485 1132.876, 2649.486 1108.343, 2647.336 1106.193 C 2646.260 1105.118, 2646.026 1103.673, 2646.507 1101.096 C 2647.365 1096.505, 2648.641 1095, 2651.675 1095 C 2653.012 1095, 2668.091 1102.666, 2685.183 1112.037 C 2702.276 1121.407, 2716.373 1128.944, 2716.512 1128.787 C 2716.650 1128.629, 2716.542 1127.150, 2716.273 1125.500 C 2715.826 1122.768, 2714.562 1121.898, 2702.141 1115.772 C 2687.938 1108.768, 2654.057 1089.166, 2650.390 1085.832 L 2648.280 1083.914 2646.146 1093.063 C 2644.973 1098.095, 2644.226 1102.557, 2644.487 1102.979 C 2644.748 1103.402, 2639.233 1101.746, 2632.231 1099.301 C 2570.292 1077.668, 2491.026 1062.669, 2414 1058.008 C 2398.780 1057.087, 2350.467 1056.885, 2340 1057.699 M 2651 1069.918 C 2651 1070.973, 2650.727 1072.548, 2650.393 1073.418 C 2650.003 1074.433, 2650.331 1075, 2651.307 1075 C 2652.834 1075, 2660.816 1079.348, 2694.839 1098.715 C 2704.926 1104.457, 2713.385 1108.948, 2713.638 1108.695 C 2713.891 1108.443, 2713.803 1107.170, 2713.444 1105.868 C 2712.961 1104.119, 2710.518 1102.401, 2704.095 1099.297 C 2694.796 1094.803, 2671.129 1080.835, 2659.295 1072.857 C 2655.332 1070.186, 2651.845 1068, 2651.545 1068 C 2651.245 1068, 2651 1068.863, 2651 1069.918 M 2482.120 1210.579 C 2454.124 1218.108, 2437.023 1245.493, 2441.977 1274.862 C 2445.399 1295.154, 2461.837 1313.409, 2481.368 1318.610 C 2487.410 1320.219, 2501.619 1320.384, 2507.972 1318.921 C 2526.048 1314.755, 2542.594 1298.174, 2547.511 1279.297 C 2549.402 1272.036, 2549.409 1257.127, 2547.525 1250.045 C 2539.857 1221.231, 2509.845 1203.122, 2482.120 1210.579 M 2376.562 1243.136 C 2358.445 1244.735, 2343.406 1246.260, 2343.141 1246.526 C 2342.876 1246.791, 2343.712 1248.129, 2345 1249.500 C 2346.288 1250.871, 2347.152 1252.136, 2346.921 1252.311 C 2346.689 1252.487, 2327.053 1255.969, 2303.284 1260.050 C 2279.516 1264.130, 2260.391 1267.737, 2260.784 1268.065 C 2261.178 1268.393, 2280.850 1270.612, 2304.500 1272.996 C 2328.150 1275.379, 2347.689 1277.482, 2347.921 1277.669 C 2348.152 1277.855, 2347.331 1279.084, 2346.095 1280.398 C 2344.860 1281.713, 2344.221 1283.016, 2344.675 1283.293 C 2345.129 1283.570, 2361.974 1284.127, 2382.109 1284.531 C 2410.485 1285.100, 2418.888 1284.991, 2419.472 1284.045 C 2420.922 1281.699, 2418.390 1281.103, 2404 1280.407 C 2395.308 1279.987, 2389.206 1279.264, 2388.765 1278.603 C 2387.649 1276.928, 2387.859 1269.404, 2389.097 1266.686 C 2389.954 1264.805, 2389.845 1263.600, 2388.597 1261.188 C 2387.719 1259.489, 2387 1256.041, 2387 1253.525 C 2387 1247.839, 2387.274 1247.719, 2403.978 1246.131 C 2410.841 1245.478, 2416.863 1244.537, 2417.361 1244.039 C 2417.858 1243.542, 2417.995 1242.429, 2417.664 1241.567 C 2416.899 1239.574, 2416.922 1239.573, 2376.562 1243.136 M 2360.500 1249.383 C 2351.754 1251.114, 2351.262 1251.630, 2354.801 1255.363 C 2356.437 1257.088, 2358.500 1259.937, 2359.385 1261.694 C 2361.238 1265.373, 2360.495 1268.351, 2356.376 1273.751 C 2355.008 1275.545, 2354.138 1277.415, 2354.443 1277.907 C 2354.747 1278.400, 2357.810 1279.105, 2361.248 1279.474 C 2364.687 1279.842, 2368.298 1280.370, 2369.273 1280.647 C 2370.620 1281.029, 2371.538 1280.037, 2373.095 1276.519 C 2375.134 1271.909, 2375.134 1271.871, 2373.190 1268.141 C 2371.415 1264.736, 2371.372 1264.137, 2372.718 1261.569 C 2374.385 1258.387, 2373.903 1254.308, 2371.411 1250.504 C 2369.594 1247.732, 2369.102 1247.681, 2360.500 1249.383 M 2378.250 1248.718 C 2375.680 1249.640, 2378.174 1262, 2380.930 1262 C 2382.648 1262, 2383.216 1257.517, 2382.048 1253.177 C 2380.865 1248.786, 2380.209 1248.015, 2378.250 1248.718 M 2379.006 1269.484 C 2377.694 1272.935, 2377.716 1278.706, 2379.044 1279.527 C 2381.349 1280.951, 2383.098 1277.754, 2382.797 1272.667 C 2382.463 1267.029, 2380.550 1265.423, 2379.006 1269.484 M 2258 1308.679 C 2258 1309.040, 2261.331 1314.321, 2265.403 1320.417 C 2282.507 1346.025, 2301.817 1364.882, 2320.500 1374.223 C 2335.472 1381.708, 2361.099 1387.511, 2397.500 1391.657 C 2408.558 1392.916, 2422.168 1393.415, 2449.287 1393.553 C 2469.520 1393.657, 2486.363 1394.030, 2486.716 1394.383 C 2487.069 1394.736, 2486.377 1396.351, 2485.179 1397.972 C 2483.981 1399.593, 2483 1401.596, 2483 1402.424 C 2483 1404.578, 2486.567 1406.191, 2490.569 1405.846 C 2493.506 1405.593, 2494.464 1406.108, 2497.177 1409.399 C 2500.935 1413.957, 2505.344 1416.016, 2511.218 1415.956 C 2517.852 1415.888, 2523.064 1413.550, 2526.915 1408.914 C 2529.190 1406.175, 2532.551 1403.772, 2536.729 1401.897 C 2541.874 1399.589, 2543.360 1398.383, 2544.541 1395.555 C 2545.344 1393.635, 2546 1390.889, 2546 1389.452 C 2546 1387.332, 2546.755 1386.543, 2550 1385.268 C 2552.200 1384.404, 2554 1383.294, 2554 1382.802 C 2554 1382.310, 2552.566 1381.140, 2550.813 1380.203 C 2545.341 1377.279, 2543 1374.409, 2543 1370.627 C 2543 1362.679, 2540.361 1361.876, 2536.832 1368.750 C 2532.895 1376.419, 2529.126 1377.262, 2518.303 1372.892 C 2515.432 1371.733, 2514.435 1371.877, 2508.527 1374.303 C 2502.424 1376.810, 2501.702 1376.902, 2498.554 1375.587 C 2493.955 1373.665, 2492.634 1370.834, 2493.305 1364.335 C 2494.066 1356.960, 2491.215 1354.209, 2485.809 1357.102 C 2483.992 1358.074, 2483.822 1358.828, 2484.367 1363.467 L 2484.986 1368.730 2480.353 1369.365 C 2473.398 1370.318, 2448.379 1370.112, 2432 1368.966 C 2363.644 1364.182, 2306.444 1345.419, 2266.704 1314.743 C 2261.917 1311.048, 2258 1308.319, 2258 1308.679 M 2497.067 1387.933 C 2492.385 1392.615, 2490.982 1397, 2494.166 1397 C 2494.742 1397, 2497.326 1399.250, 2499.908 1402 C 2504.285 1406.662, 2504.928 1407, 2509.433 1407 C 2514.561 1407, 2520.231 1404.305, 2521.981 1401.036 C 2522.506 1400.055, 2525.874 1397.732, 2529.464 1395.876 C 2536.329 1392.326, 2537.063 1391.206, 2534.319 1388.462 C 2532.615 1386.758, 2532.366 1386.761, 2520.784 1388.616 C 2518.495 1388.982, 2515.258 1388.594, 2512.356 1387.605 C 2505.810 1385.375, 2499.489 1385.511, 2497.067 1387.933 M 2069.500 1901.618 C 2025.586 1906.156, 1991.043 1919.394, 1957.500 1944.539 C 1930.556 1964.737, 1908.245 1992.450, 1891.512 2026.500 C 1868.667 2072.991, 1858.804 2122.776, 1860.312 2184 C 1860.920 2208.693, 1861.703 2217.523, 1865.100 2238 C 1885.244 2359.442, 1969.232 2430.034, 2093.500 2429.970 C 2125.652 2429.953, 2146.798 2425.433, 2172.500 2413.083 C 2183.549 2407.773, 2190.097 2403.674, 2215.682 2386.046 C 2223.138 2380.909, 2225.786 2379.631, 2229.770 2379.248 C 2234.182 2378.824, 2235.038 2379.095, 2238.270 2381.932 C 2244.126 2387.073, 2249.254 2400.265, 2250.634 2413.733 L 2251.276 2420 2258.672 2420 L 2266.068 2420 2266.011 2335.250 C 2265.979 2286.472, 2266.358 2247.837, 2266.905 2244.227 C 2268.319 2234.886, 2270.796 2228.355, 2274.338 2224.630 C 2278.179 2220.588, 2286.607 2217.301, 2295.449 2216.395 L 2302 2215.724 2302 2208.834 L 2302 2201.943 2284.250 2202.722 C 2261.302 2203.728, 2181.441 2203.724, 2150.204 2202.715 L 2125.907 2201.931 2126.204 2208.715 L 2126.500 2215.500 2131.500 2215.745 C 2141.937 2216.255, 2156.811 2218.182, 2164.892 2220.070 C 2184.391 2224.624, 2192.726 2233.816, 2196.569 2255 C 2198.529 2265.800, 2198.599 2363.255, 2196.653 2370.758 C 2194.871 2377.628, 2190.781 2383.362, 2183.690 2388.935 C 2156.678 2410.161, 2123.861 2418.723, 2083.500 2415.074 C 1988.781 2406.512, 1942.270 2343.892, 1933.035 2212.500 C 1931.375 2188.881, 1931.593 2137.202, 1933.432 2118.500 C 1943.376 2017.379, 1982.267 1947.340, 2042.223 1922.578 C 2083.904 1905.364, 2140.714 1913.154, 2183.834 1941.997 C 2195.220 1949.613, 2209.083 1962.653, 2217.092 1973.283 C 2225.656 1984.648, 2234.193 2002.676, 2238.504 2018.500 C 2242.125 2031.792, 2248.391 2061.324, 2249.590 2070.750 L 2250.258 2076 2258.481 2076 L 2266.704 2076 2267.353 2007.750 C 2267.710 1970.213, 2268.289 1933.088, 2268.641 1925.250 L 2269.280 1911 2261.140 1911 L 2253 1911 2253 1913.869 C 2253 1919.020, 2250.020 1934.354, 2247.735 1940.964 C 2246.346 1944.981, 2244.090 1948.912, 2241.776 1951.349 C 2238.403 1954.901, 2237.704 1955.214, 2234.349 1954.669 C 2232.311 1954.339, 2228.761 1952.815, 2226.459 1951.284 C 2224.157 1949.753, 2214.674 1943.402, 2205.386 1937.170 C 2196.099 1930.939, 2184.900 1923.899, 2180.500 1921.526 C 2165.100 1913.219, 2145.874 1906.768, 2126.500 1903.406 C 2117.800 1901.897, 2078.679 1900.669, 2069.500 1901.618 M 816.159 1904.576 C 772.632 1910.916, 738.267 1933.473, 721.057 1967 C 712.841 1983.005, 709.650 1994.803, 707.968 2015.397 C 705.594 2044.444, 711.599 2073.106, 724.657 2095.057 C 743.538 2126.798, 767.652 2147.163, 835.906 2189.005 C 895.177 2225.341, 918.673 2244.974, 934.629 2271.500 C 947.624 2293.103, 951.132 2323.029, 943.904 2350.625 C 932.370 2394.662, 892.278 2419.895, 841.243 2415.240 C 795.827 2411.097, 767.049 2390.830, 746.480 2348.500 C 736.210 2327.366, 727.841 2296.791, 724.993 2270 C 724.379 2264.225, 723.659 2258.037, 723.393 2256.250 L 722.909 2253 715.146 2253 L 707.383 2253 706.089 2333.250 C 705.377 2377.387, 704.574 2416.088, 704.305 2419.250 L 703.815 2425 712.182 2425 L 720.549 2425 721.704 2417.744 C 723.981 2403.433, 727.672 2395.923, 733.353 2394.049 C 738.109 2392.479, 746.579 2395.355, 759.258 2402.846 C 796.361 2424.767, 820.723 2430.936, 865.369 2429.715 C 892.815 2428.964, 910.772 2425.517, 931.645 2416.991 C 970.722 2401.030, 998.438 2369.836, 1007.503 2331.612 C 1014.022 2304.128, 1013.227 2274.008, 1005.355 2250.248 C 999.092 2231.342, 984.844 2209.870, 967.257 2192.832 C 949.619 2175.745, 914.528 2151.202, 861.013 2118.525 C 820.500 2093.787, 809.706 2086.075, 791.691 2068.993 C 776.838 2054.910, 770.361 2044.895, 765.379 2028.307 C 763.165 2020.935, 762.657 2016.974, 762.262 2004 C 761.853 1990.566, 762.074 1987.300, 763.927 1979.500 C 771.368 1948.167, 795.394 1925.467, 828.500 1918.491 C 845.030 1915.007, 869.832 1916.658, 886.571 1922.356 C 905.857 1928.921, 924.020 1942.954, 937.237 1961.500 C 951.449 1981.444, 964.032 2018.199, 966.593 2047.250 L 967.276 2055 975.638 2055 L 984 2055 984.022 2020.750 C 984.043 1987.375, 985.266 1938.896, 986.607 1918.250 L 987.273 1908 979.156 1908 C 970.127 1908, 970.931 1907.293, 969.489 1916.500 C 967.574 1928.720, 963.732 1936.378, 958.397 1938.608 C 952.313 1941.149, 944.662 1938.172, 924.059 1925.244 C 903.894 1912.591, 887.812 1906.580, 867.500 1904.103 C 855.461 1902.635, 827.728 1902.890, 816.159 1904.576 M 1048 1917.784 L 1048 1924.841 1054.750 1925.453 C 1091.262 1928.767, 1099.739 1934.138, 1104.688 1957.095 C 1106.403 1965.051, 1106.500 1976.178, 1106.500 2165.500 C 1106.500 2354.822, 1106.403 2365.949, 1104.688 2373.905 C 1101.560 2388.418, 1097.163 2394.756, 1087 2399.400 C 1081.415 2401.953, 1065.885 2404.989, 1058.375 2404.996 C 1056.106 2404.998, 1052.844 2405.281, 1051.125 2405.625 L 1048 2406.250 1048 2413.150 L 1048 2420.051 1061.750 2419.275 C 1079.573 2418.270, 1196.936 2418.269, 1216.750 2419.273 L 1232 2420.046 1232 2413.111 L 1232 2406.176 1228.250 2405.636 C 1226.188 2405.340, 1220.900 2404.802, 1216.500 2404.442 C 1212.100 2404.081, 1205.164 2402.934, 1201.086 2401.892 C 1184.639 2397.690, 1178.724 2390.829, 1175.472 2372.180 C 1174.247 2365.155, 1174 2348.139, 1174 2270.768 L 1174 2177.797 1214.750 2178.247 C 1252.119 2178.659, 1256.135 2178.869, 1263.154 2180.783 C 1277.182 2184.607, 1287.328 2191.341, 1295.561 2202.293 C 1307.904 2218.713, 1312.902 2234.733, 1330.562 2314.477 C 1343.891 2374.668, 1347.662 2386.389, 1359.038 2403 C 1366.464 2413.843, 1377.855 2422.187, 1391.422 2426.722 C 1398.962 2429.242, 1400.665 2429.423, 1417 2429.434 C 1437.224 2429.448, 1442.623 2428.360, 1455.491 2421.677 C 1461.538 2418.536, 1465.820 2415.211, 1473.091 2408.013 C 1482.944 2398.257, 1493.342 2385.362, 1492.480 2383.967 C 1492.214 2383.537, 1489.796 2381.604, 1487.108 2379.673 L 1482.219 2376.161 1477.041 2382.543 C 1470.494 2390.611, 1462.237 2398.185, 1457.574 2400.398 C 1448.994 2404.470, 1436.031 2404.294, 1430.036 2400.026 C 1421.864 2394.207, 1415.829 2383.049, 1410.979 2364.793 C 1409.328 2358.582, 1402.989 2332.800, 1396.891 2307.500 C 1384.645 2256.689, 1380.845 2243.676, 1374.509 2230.851 C 1368.937 2219.574, 1364.957 2213.844, 1357.557 2206.443 C 1347.569 2196.456, 1335.671 2189.466, 1319.153 2183.883 C 1310.253 2180.874, 1288.815 2176, 1284.484 2176 C 1279.155 2176, 1282.422 2174.307, 1290.878 2172.686 C 1310.655 2168.895, 1334.700 2160.376, 1348.622 2152.229 C 1374.568 2137.045, 1396.166 2114.072, 1406.032 2091.161 C 1415.501 2069.174, 1418.452 2054.195, 1417.687 2032 C 1417.005 2012.233, 1414.478 2001.849, 1406.483 1985.961 C 1387.352 1947.944, 1348.064 1923.880, 1289.500 1914.310 C 1279.416 1912.663, 1269.795 1912.512, 1174 1912.501 C 1116.525 1912.494, 1064.662 1912.093, 1058.750 1911.608 L 1048 1910.727 1048 1917.784 M 1486 1917.890 L 1486 1924.841 1492.750 1925.467 C 1521.878 1928.171, 1532.076 1932.387, 1538.113 1944.222 C 1543.684 1955.142, 1543.402 1944.421, 1543.764 2159 C 1544.103 2359.354, 1543.959 2369.048, 1540.475 2380.767 C 1536.170 2395.251, 1526.163 2401.663, 1504.114 2404.068 C 1498.826 2404.644, 1492.588 2405.342, 1490.250 2405.619 L 1486 2406.123 1486 2413.089 L 1486 2420.056 1498.250 2419.278 C 1514.139 2418.269, 1637.362 2418.267, 1655.250 2419.275 L 1669 2420.051 1669 2413.087 L 1669 2406.123 1664.750 2405.619 C 1662.412 2405.342, 1656.174 2404.644, 1650.886 2404.068 C 1623.932 2401.128, 1615.287 2393.103, 1612.034 2368 C 1610.718 2357.851, 1610.718 1973.149, 1612.034 1963 C 1615.610 1935.407, 1624.549 1928.719, 1662.250 1925.430 L 1669 1924.841 1669 1917.890 L 1669 1910.939 1652.750 1911.719 C 1643.813 1912.149, 1609.950 1912.500, 1577.500 1912.500 C 1545.050 1912.500, 1511.188 1912.149, 1502.250 1911.719 L 1486 1910.939 1486 1917.890 M 2317 1917.864 L 2317 1924.763 2325.750 1925.431 C 2363.093 1928.280, 2371.893 1935.976, 2374.995 1968.500 C 2375.544 1974.261, 2375.961 2036.148, 2375.978 2114.500 C 2375.996 2196.911, 2376.410 2256.017, 2377.029 2264.500 C 2381.367 2323.978, 2392.537 2353.600, 2422.372 2384.749 C 2445.098 2408.475, 2474.731 2422.504, 2514 2428.127 C 2528.482 2430.201, 2569.916 2429.937, 2581.736 2427.695 C 2615.191 2421.350, 2642.330 2407.621, 2663.338 2386.413 C 2689.136 2360.368, 2702.834 2323.135, 2709.107 2262 C 2709.913 2254.136, 2710.507 2205.756, 2710.983 2109 C 2711.741 1955.063, 2711.541 1960.144, 2717.326 1947.663 C 2723.492 1934.358, 2736.615 1927.876, 2762.250 1925.473 L 2769 1924.841 2769 1917.880 L 2769 1910.918 2757.250 1911.709 C 2742.501 1912.702, 2647.188 1912.664, 2636.750 1911.661 L 2629 1910.917 2629 1917.841 L 2629 1924.765 2636.750 1925.460 C 2670.132 1928.456, 2684.880 1938.958, 2691.571 1964.500 C 2693.294 1971.080, 2693.426 1979.335, 2693.767 2102 C 2694.190 2254.152, 2693.847 2263.169, 2686.344 2297 C 2675.655 2345.190, 2654.965 2376.082, 2622.879 2391.757 C 2595.488 2405.139, 2551.317 2408.850, 2518.502 2400.526 C 2498.339 2395.411, 2482.002 2384.072, 2469.449 2366.481 C 2456.156 2347.852, 2449.410 2325.232, 2445.002 2284.500 C 2442.902 2265.094, 2441.897 2189.147, 2442.282 2079 C 2442.715 1955.120, 2442.658 1956.351, 2448.496 1944.418 C 2454.417 1932.317, 2465.127 1927.721, 2492.750 1925.427 L 2501 1924.742 2501 1917.853 L 2501 1910.964 2489.750 1911.732 C 2483.563 1912.155, 2447.225 1912.500, 2409 1912.500 C 2370.775 1912.500, 2334.438 1912.155, 2328.250 1911.732 L 2317 1910.964 2317 1917.864 M 2790 1917.833 L 2790 1924.841 2796.750 1925.430 C 2825.143 1927.907, 2836.360 1932.422, 2841.955 1943.625 C 2847.769 1955.266, 2847.407 1941.872, 2847.775 2159 C 2848.024 2305.901, 2847.808 2361.001, 2846.955 2367.985 C 2843.834 2393.535, 2834.149 2402.065, 2805.500 2404.495 C 2801.650 2404.822, 2796.588 2405.322, 2794.250 2405.606 L 2790 2406.123 2790 2413.087 L 2790 2420.051 2803.750 2419.275 C 2821.602 2418.269, 2941.398 2418.269, 2959.250 2419.275 L 2973 2420.051 2973 2413.087 L 2973 2406.123 2968.750 2405.619 C 2966.412 2405.342, 2960.174 2404.644, 2954.886 2404.068 C 2939.707 2402.412, 2932.688 2399.819, 2926.417 2393.548 C 2922.075 2389.205, 2920.775 2387.050, 2919.080 2381.385 C 2915.367 2368.975, 2915.017 2359.141, 2915.008 2267.149 L 2915 2177.797 2955.750 2178.277 C 3000.668 2178.805, 3004.935 2179.284, 3017 2185.145 C 3026.703 2189.858, 3038.208 2201.864, 3044.174 2213.500 C 3052.338 2229.424, 3057.191 2247.025, 3072.436 2316 C 3083.311 2365.197, 3086.901 2377.919, 3093.742 2391.500 C 3101.783 2407.463, 3110.916 2416.751, 3125.219 2423.510 C 3134.906 2428.088, 3144.704 2430, 3158.477 2430 C 3189.185 2430, 3207.674 2420.101, 3228.715 2392.394 L 3234.870 2384.289 3229.340 2380.229 L 3223.810 2376.170 3218.052 2382.835 C 3210.836 2391.188, 3203.203 2398.327, 3199.365 2400.311 C 3194.315 2402.923, 3184.811 2404.189, 3179.348 2402.978 C 3170.111 2400.930, 3164.554 2395.715, 3159.095 2383.974 C 3155.062 2375.302, 3152.020 2364.046, 3138.425 2307.500 C 3125.888 2255.359, 3122.298 2243.224, 3115.349 2229.500 C 3109.688 2218.322, 3105.961 2213.197, 3097.792 2205.354 C 3083.190 2191.336, 3063.963 2182.864, 3034.500 2177.464 C 3029.550 2176.557, 3024.825 2175.586, 3024 2175.307 C 3023.175 2175.028, 3027.900 2173.677, 3034.500 2172.306 C 3071.854 2164.545, 3098.344 2150.839, 3122 2127.035 C 3136.109 2112.838, 3142.550 2103.414, 3149.091 2087.401 C 3163.340 2052.519, 3163.290 2018.287, 3148.946 1988.138 C 3142.861 1975.348, 3137.310 1967.472, 3127.544 1957.769 C 3103.420 1933.801, 3067.589 1918.653, 3022.947 1913.549 C 3011.447 1912.234, 2994.624 1912.037, 2911.947 1912.249 C 2858.351 1912.387, 2808.988 1912.123, 2802.250 1911.662 L 2790 1910.825 2790 1917.833 M 3211 1917.901 L 3211 1924.841 3217.750 1925.453 C 3253.774 1928.722, 3262.401 1934.020, 3267.589 1956.056 C 3269.202 1962.906, 3269.395 1975.511, 3270.013 2114 C 3270.476 2217.800, 3271.046 2267.758, 3271.852 2275 C 3278.125 2331.421, 3288.930 2357.114, 3318.952 2387 C 3343.899 2411.834, 3373.889 2424.643, 3417.419 2429.055 C 3436.264 2430.965, 3466.480 2429.786, 3481.889 2426.539 C 3511.443 2420.312, 3537.670 2406.523, 3557 2387.049 C 3582.800 2361.058, 3595.965 2327.304, 3602.651 2270 C 3604.130 2257.326, 3604.428 2237.552, 3605.017 2113 C 3605.760 1955.757, 3605.552 1960.658, 3612.056 1947.303 C 3618.564 1933.938, 3630.390 1928.219, 3657.250 1925.449 L 3663 1924.856 3663 1917.900 L 3663 1910.944 3650.750 1911.722 C 3634.906 1912.728, 3554.583 1912.730, 3536.750 1911.725 L 3523 1910.949 3523 1917.903 L 3523 1924.856 3528.750 1925.441 C 3538.680 1926.450, 3554.266 1929.676, 3560.285 1931.967 C 3567.989 1934.900, 3576.960 1943.231, 3580.896 1951.108 C 3582.538 1954.395, 3584.696 1960.552, 3585.691 1964.792 C 3587.391 1972.035, 3587.500 1980.938, 3587.500 2112.500 C 3587.500 2221.299, 3587.210 2254.840, 3586.200 2263 C 3582.006 2296.885, 3575.329 2321.363, 3564.240 2343.500 C 3550.080 2371.768, 3530.657 2388.446, 3501 2397.803 C 3484.640 2402.965, 3473.890 2404.382, 3451 2404.395 C 3428.117 2404.407, 3416.948 2402.704, 3401.933 2396.914 C 3372.504 2385.565, 3351.421 2356.538, 3344.030 2317.195 C 3337.235 2281.023, 3336.804 2267.480, 3337.223 2103.500 C 3337.548 1976.324, 3337.756 1960.806, 3339.219 1954.856 C 3341.419 1945.901, 3343.973 1941.201, 3349.317 1936.276 C 3355.892 1930.215, 3363.964 1928.025, 3389.250 1925.443 L 3395 1924.856 3395 1917.908 L 3395 1910.961 3376.750 1911.730 C 3366.713 1912.154, 3333.525 1912.500, 3303 1912.500 C 3272.475 1912.500, 3239.287 1912.154, 3229.250 1911.730 L 3211 1910.961 3211 1917.901 M 1211 1925.951 C 1197.994 1927.624, 1191.784 1930.053, 1185.665 1935.860 C 1181.043 1940.248, 1178.555 1944.854, 1176.292 1953.219 C 1174.755 1958.898, 1174.560 1969.312, 1174.260 2061.852 L 1173.928 2164.203 1210.714 2163.716 C 1248.506 2163.215, 1255.298 2162.635, 1271.493 2158.527 C 1295.188 2152.516, 1314.680 2140.080, 1326.644 2123.340 C 1339.563 2105.265, 1346 2079.103, 1346 2044.673 C 1346 2026.076, 1344.923 2015.668, 1341.533 2001.500 C 1331.236 1958.466, 1304.325 1934.492, 1258.463 1927.495 C 1246.430 1925.659, 1219.967 1924.798, 1211 1925.951 M 2951.500 1926.139 C 2930.752 1928.766, 2921.940 1936.337, 2917.306 1955.517 C 2915.793 1961.777, 2915.582 1972.940, 2915.265 2063.351 L 2914.911 2164.202 2952.205 2163.736 C 2991.140 2163.250, 2998.967 2162.538, 3015.884 2157.940 C 3041.982 2150.846, 3062.427 2135.332, 3073.839 2113.962 C 3090.484 2082.791, 3092.490 2022.731, 3078.129 1985.491 C 3068.991 1961.795, 3051.238 1943.638, 3028.709 1934.947 C 3008.013 1926.963, 2974.863 1923.181, 2951.500 1926.139 M 1286.541 2484.681 C 1248.111 2489.838, 1209.358 2506.578, 1179.732 2530.818 C 1170.658 2538.243, 1154.781 2554.314, 1147.445 2563.500 C 1132.597 2582.092, 1116.573 2611.034, 1107.581 2635.500 C 1099.545 2657.364, 1093.388 2684.345, 1089.783 2713.500 C 1088.069 2727.354, 1088.097 2785.298, 1089.823 2799 C 1096.685 2853.458, 1111.774 2894.897, 1137.257 2929.266 C 1144.710 2939.317, 1160.881 2956.102, 1171 2964.288 C 1199.980 2987.732, 1236.837 3003.167, 1278.941 3009.491 C 1296.845 3012.180, 1322.709 3013.303, 1337.864 3012.049 C 1377.376 3008.780, 1399.997 2999.505, 1442.919 2968.974 C 1452.559 2962.118, 1457.491 2960.347, 1462.418 2961.973 C 1466.345 2963.269, 1469.039 2966.035, 1471.870 2971.677 C 1474.465 2976.847, 1477.665 2988.604, 1478.558 2996.250 L 1479.230 3002 1486.560 3002 L 1493.890 3002 1494.266 2914.750 C 1494.599 2837.492, 1494.834 2826.698, 1496.316 2820.500 C 1499.500 2807.179, 1506.338 2801.436, 1521.901 2799.015 L 1530 2797.756 1530 2790.261 C 1530 2782.976, 1529.937 2782.784, 1527.750 2783.375 C 1526.513 2783.709, 1509.693 2784.478, 1490.374 2785.083 C 1456.395 2786.147, 1367.625 2784.993, 1357.750 2783.359 L 1354 2782.738 1354 2790.265 L 1354 2797.792 1362.250 2798.461 C 1386.727 2800.445, 1397.357 2802.574, 1406.301 2807.280 C 1413.162 2810.891, 1416.316 2814.363, 1420.151 2822.530 C 1425.258 2833.406, 1425.988 2842.766, 1425.994 2897.540 C 1426.001 2951.662, 1425.771 2954.113, 1419.881 2962.674 C 1413.813 2971.492, 1391.788 2985.405, 1375 2991.023 C 1358.107 2996.676, 1335.742 2998.874, 1313.500 2997.065 C 1219.477 2989.420, 1172.865 2929.467, 1161.841 2802 C 1160.078 2781.626, 1160.052 2717.886, 1161.799 2701 C 1171.965 2602.714, 1206.939 2536.138, 1262.958 2508.434 C 1320.243 2480.104, 1405.244 2502.294, 1445.159 2556 C 1460.736 2576.958, 1467.137 2596.217, 1477.733 2654 L 1478.558 2658.500 1486.779 2658.790 L 1495 2659.081 1495.026 2640.790 C 1495.069 2610.645, 1496.897 2513.226, 1497.616 2502.750 L 1498.286 2493 1489.794 2493 L 1481.303 2493 1480.107 2501.750 C 1477.140 2523.448, 1472.258 2534.667, 1465 2536.463 C 1461.664 2537.288, 1456.313 2534.327, 1434.312 2519.480 C 1408.280 2501.913, 1394.010 2494.965, 1371.769 2489.030 C 1365.566 2487.374, 1355.768 2485.349, 1349.995 2484.528 C 1336.369 2482.592, 1301.482 2482.676, 1286.541 2484.681 M 157.928 2486.468 C 119.545 2492.729, 90.944 2508.658, 71.729 2534.476 C 56.282 2555.232, 49.012 2579.241, 49.012 2609.500 C 49.012 2649.605, 61.959 2679.878, 92 2710.013 C 108.568 2726.633, 133.555 2744.596, 175.500 2770.039 C 239.805 2809.046, 265.051 2830.964, 279.508 2860.334 C 286.832 2875.213, 288.325 2882.434, 288.333 2903 C 288.337 2915.546, 287.882 2922.496, 286.725 2927.552 C 278.314 2964.299, 255.013 2987.245, 217.516 2995.710 C 207.519 2997.966, 181.363 2997.920, 169.626 2995.624 C 133.964 2988.650, 112.050 2972.996, 93.997 2941.599 C 78.758 2915.096, 69.294 2881.629, 65.467 2840.711 L 64.832 2833.922 56.666 2834.211 L 48.500 2834.500 47.890 2898 C 47.288 2960.733, 46.446 2995.952, 45.375 3003.250 L 44.824 3007 53.393 3007 C 63.057 3007, 61.821 3008.214, 64.076 2996.500 C 65.790 2987.594, 68.798 2980.304, 71.698 2978.023 C 77.065 2973.802, 86.152 2976.125, 102.210 2985.825 C 130.248 3002.760, 152.620 3009.888, 184.716 3012.109 C 237.288 3015.748, 284.700 3001.396, 314.659 2972.772 C 341.345 2947.276, 353.312 2917.516, 353.372 2876.500 C 353.408 2851.478, 349.982 2835.608, 340.421 2816.500 C 322.616 2780.921, 290.985 2754.355, 201.706 2700 C 163.081 2676.484, 148.714 2666.129, 131.367 2649.303 C 114.071 2632.526, 106.510 2617.006, 103.938 2593 C 100.307 2559.117, 113.885 2529.056, 140.240 2512.630 C 167.644 2495.550, 209.462 2494.275, 240.115 2509.585 C 260.496 2519.765, 278.956 2539.773, 290.411 2564.100 C 298.571 2581.429, 305.768 2607.489, 307.506 2626 C 308.618 2637.839, 307.854 2637, 317.519 2637 L 326 2637 326.023 2598.750 C 326.045 2562.091, 327.198 2517.277, 328.597 2498.750 L 329.258 2490 320.838 2490 L 312.418 2490 310.700 2499.085 C 308.715 2509.588, 305.613 2517.457, 302.636 2519.542 C 299.580 2521.683, 292.296 2521.280, 285.807 2518.611 C 282.676 2517.323, 274.351 2512.671, 267.307 2508.273 C 251.275 2498.263, 246.186 2495.689, 235.237 2492.049 C 219.248 2486.733, 213.190 2485.869, 189 2485.455 C 172.845 2485.178, 164.083 2485.464, 157.928 2486.468 M 2349.928 2486.530 C 2324.696 2490.464, 2301.771 2499.640, 2285 2512.518 C 2272.139 2522.395, 2258.228 2539.578, 2252.081 2553.183 C 2243.528 2572.113, 2240.549 2589.018, 2241.291 2614.427 C 2242.144 2643.634, 2247.745 2662.224, 2262.254 2684 C 2281.167 2712.388, 2304.743 2731.724, 2366.500 2769.499 C 2394.562 2786.664, 2410.648 2797.278, 2425.174 2808.213 C 2471.017 2842.722, 2487.458 2879.440, 2478.418 2927.122 C 2472.020 2960.872, 2448.759 2985.360, 2414.398 2994.521 C 2392.795 3000.280, 2360.275 2998.080, 2338.147 2989.362 C 2314.092 2979.886, 2294.919 2960.893, 2280.745 2932.500 C 2268.708 2908.389, 2260.022 2875.191, 2257.392 2843.250 L 2256.712 2835 2248.356 2835 L 2240 2835 2239.986 2878.250 C 2239.971 2923.226, 2238.464 2996.736, 2237.423 3003.250 L 2236.824 3007 2245.309 3007 L 2253.795 3007 2254.936 3000.250 C 2259.570 2972.843, 2267.642 2969.835, 2294.025 2985.685 C 2316.487 2999.180, 2335.877 3006.730, 2356.500 3010.012 C 2369.114 3012.019, 2395.725 3012.990, 2409 3011.928 C 2483.615 3005.955, 2533.124 2965.167, 2543.631 2901.012 C 2545.772 2887.941, 2545.711 2864.259, 2543.504 2851.500 C 2540.218 2832.500, 2534.339 2818.050, 2523.137 2801.439 C 2507.542 2778.312, 2489.858 2762.741, 2445.500 2733.077 C 2425.144 2719.465, 2421.315 2717.042, 2384.650 2694.579 C 2321.273 2655.750, 2300.633 2632.710, 2295.958 2595.575 C 2293.590 2576.760, 2296.080 2560.017, 2303.554 2544.500 C 2311.414 2528.181, 2322.824 2516.742, 2339.451 2508.509 C 2352.526 2502.035, 2361.634 2499.912, 2379 2499.293 C 2419.889 2497.834, 2450.567 2513.545, 2473.129 2547.500 C 2486.017 2566.897, 2497.391 2601.796, 2499.609 2628.750 L 2500.288 2637 2508.486 2637 L 2516.684 2637 2517.342 2618.840 C 2517.704 2608.852, 2518.004 2589.389, 2518.009 2575.590 C 2518.019 2550.246, 2519.430 2506.343, 2520.575 2495.750 L 2521.196 2490 2512.686 2490 L 2504.176 2490 2503.514 2494.250 C 2502.412 2501.327, 2499.830 2511.336, 2498.363 2514.221 C 2495.766 2519.325, 2493.059 2521, 2487.404 2521 C 2481.367 2521, 2472.880 2517.012, 2454.500 2505.538 C 2436.488 2494.293, 2423.800 2489.560, 2403.500 2486.513 C 2391.127 2484.656, 2361.892 2484.665, 2349.928 2486.530 M 2684.104 2708.708 C 2637.186 2829.593, 2596.638 2933.078, 2593.997 2938.673 C 2587.211 2953.054, 2580.925 2962.343, 2572.124 2971 C 2564.487 2978.513, 2555.527 2984.173, 2547.553 2986.521 L 2543.500 2987.714 2543.206 2994.844 L 2542.913 3001.974 2561.706 3001.237 C 2585.699 3000.296, 2611.701 3000.303, 2649.750 3001.262 L 2680 3002.024 2680 2995.129 C 2680 2987.321, 2679.684 2987.040, 2670.881 2987.014 C 2664.477 2986.995, 2650.683 2984.476, 2643.500 2982.015 C 2619.350 2973.738, 2612.765 2953.189, 2622.342 2915.988 C 2624.412 2907.946, 2630.742 2889.730, 2637.979 2870.988 C 2644.667 2853.670, 2652.689 2832.860, 2655.806 2824.745 L 2661.473 2809.989 2748.389 2810.245 L 2835.306 2810.500 2859.072 2873.856 C 2872.143 2908.703, 2883.806 2940.798, 2884.988 2945.180 C 2887.668 2955.111, 2887.881 2966.341, 2885.486 2971.387 C 2882.967 2976.696, 2877.853 2980.656, 2870.639 2982.884 C 2863.601 2985.058, 2851.273 2987, 2844.509 2987 C 2837.315 2987, 2837 2987.342, 2837 2995.147 L 2837 3002.080 2860.750 3001.374 C 2884.495 3000.668, 2912.217 3000.510, 3000.500 3000.580 C 3026.350 3000.600, 3060.550 3000.590, 3076.500 3000.558 C 3092.450 3000.526, 3130.925 3000.897, 3162 3001.382 C 3222.854 3002.331, 3229.943 3002.026, 3252.500 2997.493 C 3285.778 2990.806, 3314.042 2976.738, 3334.936 2956.463 C 3354.503 2937.476, 3365.791 2917.002, 3371.600 2889.960 C 3373.906 2879.226, 3374.203 2850.047, 3372.113 2839.500 C 3367.273 2815.065, 3356.856 2795.646, 3339.091 2777.942 C 3328.314 2767.202, 3319.225 2760.881, 3304.528 2753.906 C 3286.956 2745.567, 3266.199 2739.473, 3240 2734.964 C 3233.125 2733.781, 3227.386 2732.704, 3227.247 2732.570 C 3227.108 2732.437, 3232.283 2730.413, 3238.747 2728.072 C 3279.625 2713.271, 3306.168 2692.588, 3322.426 2662.869 C 3341.950 2627.178, 3340.921 2580.660, 3319.901 2548.641 C 3300.686 2519.371, 3264.077 2500.612, 3215 2494.885 C 3207.639 2494.026, 3191.348 2493.786, 3160.500 2494.080 C 3093.552 2494.719, 3031.808 2494.584, 3008.750 2493.747 L 2988 2492.995 2988 2500.347 L 2988 2507.699 2998.750 2508.368 C 3029.137 2510.260, 3039.841 2517.255, 3044.160 2538.047 C 3045.255 2543.318, 3045.500 2581.769, 3045.500 2748 C 3045.500 2941.060, 3045.407 2951.897, 3043.685 2959.234 C 3040.234 2973.946, 3032.667 2981.054, 3016.812 2984.480 C 3004.050 2987.237, 2996.679 2987.004, 2989.706 2983.623 C 2979.244 2978.549, 2968.589 2966.988, 2961.483 2953 C 2959.946 2949.975, 2918.758 2844.450, 2869.954 2718.500 L 2781.219 2489.500 2775.314 2489.208 L 2769.409 2488.915 2684.104 2708.708 M 4023.046 2711.207 C 3975.579 2833.468, 3934.479 2937.944, 3931.714 2943.375 C 3921.814 2962.819, 3909.966 2975.836, 3895.500 2983.163 L 3887.500 2987.215 3876 2986.632 C 3848.086 2985.215, 3836.131 2978.152, 3831.369 2960.264 C 3829.668 2953.876, 3829.550 2942.347, 3829.244 2753 C 3829.019 2613.761, 3829.250 2549.979, 3829.998 2544.249 C 3833.404 2518.154, 3842.958 2510.758, 3876.500 2508.248 L 3886.500 2507.500 3886.794 2500.224 L 3887.089 2492.948 3866.294 2493.724 C 3839.398 2494.728, 3752.754 2494.724, 3724.706 2493.718 L 3702.911 2492.937 3703.206 2500.218 L 3703.500 2507.500 3713.500 2508.248 C 3746.871 2510.745, 3756.318 2517.913, 3759.963 2543.500 C 3760.568 2547.748, 3760.968 2587.556, 3760.980 2644.750 L 3761 2739 3644.454 2739 L 3527.908 2739 3528.265 2641.250 C 3528.582 2554.373, 3528.806 2542.737, 3530.282 2536.636 C 3533.309 2524.130, 3540.169 2515.873, 3550.254 2512.597 C 3556.897 2510.440, 3572.748 2508.014, 3580.250 2508.006 L 3586 2508 3586 2500.460 L 3586 2492.920 3566.250 2493.710 C 3540.712 2494.732, 3447.264 2494.731, 3421.705 2493.708 L 3401.911 2492.917 3402.205 2500.208 L 3402.500 2507.500 3412.500 2508.211 C 3431.948 2509.594, 3444.180 2513.308, 3450.193 2519.657 C 3453.996 2523.671, 3457.592 2532.231, 3459.159 2541 C 3460.251 2547.105, 3460.500 2585.611, 3460.500 2748 C 3460.500 2932.617, 3460.372 2948.124, 3458.783 2955.866 C 3454.492 2976.776, 3445.787 2983.503, 3419.700 2986.066 C 3413.540 2986.672, 3407.037 2987.375, 3405.250 2987.629 L 3402 2988.091 3402 2995.115 L 3402 3002.140 3424.750 3001.335 C 3437.262 3000.893, 3468.425 3000.531, 3494 3000.531 C 3519.575 3000.531, 3550.738 3000.893, 3563.250 3001.335 L 3586 3002.140 3586 2995.089 C 3586 2986.893, 3586.929 2987.473, 3572.278 2986.527 C 3562.615 2985.904, 3550.180 2983.178, 3545.164 2980.585 C 3537.952 2976.855, 3532.961 2969.353, 3530.236 2958.144 C 3528.817 2952.309, 3528.577 2939.409, 3528.265 2852.250 L 3527.910 2753 3644.487 2753 L 3761.064 2753 3760.734 2853.250 C 3760.430 2945.689, 3760.265 2954.027, 3758.617 2960.264 C 3754.018 2977.672, 3742.446 2984.853, 3716.247 2986.558 C 3702.128 2987.476, 3703 2986.913, 3703 2995.110 L 3703 3002.183 3725.250 3001.341 C 3752.516 3000.310, 3859.381 3000.595, 3874.469 3001.739 C 3880.502 3002.197, 3888.602 3002.185, 3892.469 3001.714 C 3901.971 3000.556, 3966.888 3000.327, 3996.250 3001.348 L 4020 3002.174 4020 2995.194 C 4020 2987.199, 4019.795 2987, 4011.549 2987 C 4008.641 2987, 4002.491 2986.341, 3997.881 2985.535 C 3968.002 2980.314, 3956.794 2967.410, 3958.329 2940 C 3959.382 2921.215, 3962.092 2912.378, 3985.237 2852.254 L 4001.500 2810.007 4088.341 2810.254 L 4175.183 2810.500 4199.199 2874.500 C 4212.408 2909.700, 4224.111 2942.036, 4225.206 2946.357 C 4226.629 2951.973, 4227.097 2956.559, 4226.848 2962.436 C 4226.547 2969.551, 4226.133 2971.140, 4223.771 2974.234 C 4222.271 2976.201, 4219.499 2978.764, 4217.613 2979.930 C 4212.647 2982.999, 4200.077 2985.896, 4188 2986.754 L 4177.500 2987.500 4177.205 2994.825 L 4176.909 3002.151 4198.205 3001.378 C 4226.871 3000.338, 4300.714 3000.306, 4325.795 3001.323 L 4346.091 3002.145 4345.795 2994.833 L 4345.500 2987.521 4340.186 2986.760 C 4325.152 2984.605, 4309.338 2970.252, 4300.204 2950.472 C 4298.941 2947.738, 4258.162 2842.900, 4209.583 2717.500 L 4121.259 2489.500 4115.305 2489.207 L 4109.350 2488.914 4023.046 2711.207 M 390 2500.314 L 390 2507.698 399.773 2508.293 C 411.539 2509.010, 424.027 2511.428, 429.555 2514.059 C 438.415 2518.277, 443.750 2526.435, 446.192 2539.500 C 447.242 2545.120, 447.500 2586.426, 447.500 2749 C 447.500 2939.518, 447.395 2951.908, 445.729 2958.404 C 442.319 2971.692, 437.112 2978.250, 426.883 2982.137 C 421.053 2984.352, 405.549 2986.990, 398.332 2986.996 C 390.220 2987.002, 390 2987.218, 390 2995.174 L 390 3002.134 411.750 3001.348 C 440.482 3000.311, 520.393 3000.298, 550.250 3001.327 L 574 3002.145 574 2995.092 C 574 2986.919, 574.861 2987.475, 560.809 2986.562 C 533.983 2984.819, 523.096 2978.136, 518.349 2960.500 C 515.184 2948.738, 514.885 2927.050, 515.260 2736.500 C 515.602 2563.269, 515.783 2545.840, 517.310 2539.025 C 522.280 2516.849, 531.709 2510.626, 564 2508.211 L 573.500 2507.500 573.795 2500.211 L 574.089 2492.922 552.795 2493.711 C 525.342 2494.728, 433.021 2494.731, 408.750 2493.715 L 390 2492.931 390 2500.314 M 605 2500.506 L 605 2508 610.750 2508.006 C 617.842 2508.013, 633.734 2510.385, 640.653 2512.468 C 647.343 2514.483, 655.041 2521.344, 657.796 2527.748 C 662.610 2538.938, 662.500 2533.855, 662.500 2745 C 662.500 2933.342, 662.407 2943.933, 660.676 2951.963 C 657.409 2967.127, 650.858 2976.521, 640.294 2981.194 C 634.656 2983.688, 619.101 2986.969, 612.832 2986.987 C 605.270 2987.008, 605 2987.291, 605 2995.176 L 605 3002.138 621.750 3001.334 C 643.082 3000.310, 702.982 3000.313, 726.750 3001.340 L 745 3002.128 745 2995.171 C 745 2987.218, 744.780 2987.002, 736.668 2986.996 C 733.826 2986.994, 727.548 2986.351, 722.717 2985.567 C 693.572 2980.836, 684.204 2970.378, 681.004 2939 C 680.415 2933.227, 680.028 2853.045, 680.017 2734.593 L 680 2539.686 707.750 2582.525 C 723.013 2606.086, 790.857 2710.894, 858.516 2815.432 L 981.533 3005.500 990.016 3005.500 L 998.500 3005.500 999.030 2777 C 999.515 2568.446, 999.706 2547.913, 1001.223 2541.773 C 1004.470 2528.638, 1009.776 2520.560, 1018.526 2515.432 C 1024.015 2512.215, 1036.266 2509.176, 1047.500 2508.246 L 1056.500 2507.500 1056.795 2500.214 L 1057.089 2492.929 1042.295 2493.714 C 1023.213 2494.728, 953.278 2494.729, 932.206 2493.717 L 915.911 2492.935 916.206 2500.217 L 916.500 2507.500 926.500 2508.211 C 940.960 2509.240, 951.491 2511.572, 959.713 2515.567 C 971.141 2521.121, 976.345 2528.823, 979.643 2545.065 C 981.209 2552.781, 981.386 2567.566, 981.717 2718.489 C 981.931 2815.988, 981.711 2883.074, 981.181 2882.489 C 980.341 2881.563, 764.818 2549.500, 739.909 2510.753 L 728.500 2493.007 712 2493.753 C 690.823 2494.712, 643.301 2494.713, 621.750 2493.756 L 605 2493.013 605 2500.506 M 1556 2500.305 L 1556 2507.696 1566.344 2508.329 C 1590.985 2509.837, 1601.732 2514.391, 1607.883 2525.932 C 1614.183 2537.752, 1613.988 2530.681, 1613.994 2747.026 C 1613.998 2878.028, 1613.652 2945.325, 1612.947 2950.953 C 1611.701 2960.891, 1609.060 2968.922, 1605.505 2973.582 C 1600.002 2980.798, 1587.201 2985.407, 1569.506 2986.544 C 1555.104 2987.469, 1556 2986.902, 1556 2995.093 L 1556 3002.148 1577.250 3001.353 C 1604.869 3000.320, 1689.279 3000.317, 1717.750 3001.348 L 1740 3002.153 1740 2995.183 C 1740 2987.217, 1739.782 2987.003, 1731.668 2986.994 C 1722.626 2986.984, 1707.050 2984.135, 1700.867 2981.360 C 1691.037 2976.948, 1686.164 2969.679, 1683.276 2955.114 C 1682.014 2948.749, 1681.689 2931.544, 1681.292 2850.250 L 1680.817 2753 1797.950 2753 L 1915.082 2753 1914.736 2852.250 C 1914.366 2958.118, 1914.351 2958.448, 1909.462 2968.164 C 1906.608 2973.835, 1899.979 2979.864, 1894.236 2982.013 C 1887.977 2984.355, 1872.690 2986.990, 1865.332 2986.996 C 1857.219 2987.002, 1857 2987.218, 1857 2995.177 L 1857 3002.140 1879.750 3001.320 C 1908.256 3000.293, 1995.137 3000.251, 2020.750 3001.253 L 2040 3002.006 2040 2995.082 L 2040 2988.159 2033.250 2987.523 C 2010.556 2985.383, 2000.764 2982.667, 1994.317 2976.724 C 1989.003 2971.826, 1986.888 2967.935, 1984.411 2958.500 C 1982.664 2951.843, 1982.558 2941.939, 1982.244 2756.500 C 1982.024 2626.948, 1982.262 2557.596, 1982.953 2549.867 C 1985.290 2523.726, 1992.032 2514.760, 2012.537 2510.524 C 2016.892 2509.625, 2024.853 2508.621, 2030.227 2508.293 L 2040 2507.698 2040 2500.306 L 2040 2492.914 2021.750 2493.707 C 1998.186 2494.731, 1902.319 2494.733, 1876.750 2493.710 L 1857 2492.920 1857 2500.309 L 1857 2507.698 1866.773 2508.293 C 1894.018 2509.953, 1906.275 2516.439, 1910.985 2531.686 C 1914.581 2543.329, 1915 2555.531, 1915 2648.606 L 1915 2739 1797.907 2739 L 1680.815 2739 1681.292 2643.250 C 1681.811 2539.078, 1681.873 2537.911, 1687.499 2526.413 C 1693.190 2514.780, 1704.454 2509.966, 1730.217 2508.153 L 1739.500 2507.500 1739.795 2500.208 L 1740.089 2492.917 1720.295 2493.708 C 1694.684 2494.733, 1597.833 2494.732, 1574.250 2493.707 L 1556 2492.914 1556 2500.305 M 3145.763 2509.033 C 3132.610 2511.248, 3123.146 2517.584, 3119.163 2526.842 C 3114.187 2538.410, 3114 2542.535, 3114 2640.773 L 3114 2732.285 3146.750 2731.712 C 3188.818 2730.976, 3200.806 2729.056, 3218.827 2720.167 C 3234.174 2712.597, 3243.852 2702.232, 3253.061 2683.500 C 3263.558 2662.148, 3266.519 2646.668, 3266.450 2613.500 C 3266.407 2592.542, 3266.118 2588.194, 3264.171 2579.198 C 3259.575 2557.967, 3252.370 2543.219, 3241.076 2531.924 C 3229.334 2520.183, 3212.806 2512.580, 3192.303 2509.489 C 3181.863 2507.916, 3154.020 2507.643, 3145.763 2509.033 M 2748.370 2583.500 C 2747.949 2584.600, 2729.521 2632.525, 2707.419 2690 L 2667.233 2794.500 2747.777 2794.756 C 2792.076 2794.897, 2828.536 2794.798, 2828.798 2794.536 C 2829.227 2794.106, 2751.863 2586.575, 2749.941 2583 C 2749.269 2581.750, 2749.007 2581.834, 2748.370 2583.500 M 4088.017 2584.500 C 4087.400 2586.150, 4069.143 2633.666, 4047.447 2690.092 C 4025.751 2746.518, 4008 2793.205, 4008 2793.842 C 4008 2794.710, 4028.207 2795, 4088.617 2795 C 4164.912 2795, 4169.207 2794.906, 4168.748 2793.250 C 4167.964 2790.418, 4090.848 2584.645, 4089.955 2583 C 4089.321 2581.833, 4088.892 2582.165, 4088.017 2584.500 M 3114 2844.869 C 3114 2953.186, 3114.178 2957.441, 3119.126 2967.326 C 3123.827 2976.717, 3130.013 2980.929, 3142.959 2983.552 C 3153.700 2985.728, 3191.579 2985.152, 3205.500 2982.600 C 3245.684 2975.233, 3272.980 2956.945, 3287.742 2927.500 C 3304.416 2894.241, 3306.324 2838.539, 3291.948 2804.707 C 3280.599 2778, 3260.484 2760.488, 3231 2751.646 C 3211.134 2745.688, 3192.483 2744.006, 3146.250 2744.002 L 3114 2744 3114 2844.869 M 2378 3146 L 2378 3207 2384 3207 L 2390 3207 2390 3146 L 2390 3085 2384 3085 L 2378 3085 2378 3146 M 1537.121 3097.127 C 1528.869 3098.498, 1519.259 3103.580, 1512.930 3109.920 C 1494.802 3128.078, 1494.418 3158.816, 1512.085 3177.496 C 1520.848 3186.762, 1531.806 3191, 1547 3191 C 1559.908 3191, 1568.960 3188.186, 1580.248 3180.664 L 1584.996 3177.500 1584.998 3157.750 L 1585 3138 1565.500 3138 L 1546 3138 1546 3145 L 1546 3152 1557.500 3152 L 1569 3152 1569 3160.885 C 1569 3169.054, 1568.815 3169.891, 1566.699 3171.278 C 1562.375 3174.111, 1554.506 3176.223, 1548 3176.298 C 1533.187 3176.466, 1522.061 3168.595, 1517.941 3155.032 C 1511.641 3134.291, 1523.728 3113.715, 1543.593 3111.362 C 1549.925 3110.612, 1560.124 3113.141, 1565.481 3116.789 C 1567.671 3118.280, 1569.972 3119.826, 1570.596 3120.224 C 1571.279 3120.660, 1573.784 3118.518, 1576.905 3114.827 L 1582.081 3108.707 1577.533 3105.473 C 1566.363 3097.531, 1552.244 3094.615, 1537.121 3097.127 M 2063.106 3101.208 C 2062.083 3103.568, 2053.264 3123.725, 2043.508 3146 C 2033.752 3168.275, 2025.539 3187.307, 2025.257 3188.293 C 2024.789 3189.929, 2025.467 3190.060, 2033.044 3189.793 L 2041.344 3189.500 2045.887 3178.731 L 2050.430 3167.963 2072.302 3168.231 L 2094.175 3168.500 2098.739 3179.250 L 2103.304 3190 2111.652 3190 C 2116.243 3190, 2119.996 3189.662, 2119.992 3189.250 C 2119.987 3188.838, 2111.041 3168.025, 2100.112 3143 L 2080.241 3097.500 2072.603 3097.208 L 2064.965 3096.915 2063.106 3101.208 M 2243.490 3142.645 C 2232.496 3167.750, 2223.350 3188.675, 2223.167 3189.145 C 2222.983 3189.615, 2226.628 3190, 2231.265 3190 L 2239.696 3190 2244.261 3179.250 L 2248.825 3168.500 2270.710 3168.231 L 2292.595 3167.963 2297.068 3178.731 L 2301.542 3189.500 2310.355 3189.790 C 2315.202 3189.950, 2318.983 3189.725, 2318.757 3189.290 C 2318.531 3188.856, 2309.388 3167.912, 2298.438 3142.750 L 2278.530 3097 2271.005 3097 L 2263.481 3097 2243.490 3142.645 M 1605 3129.395 C 1605 3158.052, 1605.175 3161.343, 1607.008 3167.145 C 1612.282 3183.841, 1625.734 3191.810, 1646.920 3190.790 C 1655.600 3190.372, 1657.796 3189.883, 1663.414 3187.117 C 1671.198 3183.285, 1677.032 3177.040, 1680.200 3169.147 C 1682.367 3163.750, 1682.481 3162.052, 1682.795 3130.750 L 1683.124 3098 1675.062 3098 L 1667 3098 1667 3126.818 C 1667 3149.731, 1666.688 3156.689, 1665.475 3160.771 C 1662.474 3170.877, 1655.398 3175.939, 1644.218 3175.978 C 1633.246 3176.016, 1626.517 3171.671, 1623.003 3162.278 C 1621.165 3157.367, 1621 3154.491, 1621 3127.462 L 1621 3098 1613 3098 L 1605 3098 1605 3129.395 M 1705 3143.927 L 1705 3190 1713 3190 L 1721 3190 1721 3174 L 1721 3158 1731.351 3158 L 1741.701 3158 1753 3174 L 1764.299 3190 1773.649 3190 C 1778.792 3190, 1783 3189.786, 1783 3189.525 C 1783 3189.264, 1777.599 3181.508, 1770.998 3172.291 L 1758.996 3155.532 1764.370 3152.815 C 1770.690 3149.619, 1777.561 3142.241, 1778.983 3137.123 C 1779.536 3135.130, 1779.987 3130.350, 1779.985 3126.500 C 1779.978 3114.637, 1774.287 3105.766, 1763.500 3100.801 C 1758.745 3098.613, 1757.191 3098.484, 1731.750 3098.177 L 1705 3097.855 1705 3143.927 M 1800 3144 L 1800 3190 1818.750 3189.992 C 1840.727 3189.984, 1848.169 3188.995, 1856.943 3184.918 C 1874.927 3176.562, 1883.746 3161.551, 1882.836 3140.843 C 1882.490 3132.960, 1881.932 3130.444, 1879.262 3124.741 C 1873.447 3112.322, 1862.187 3103.107, 1848.458 3099.531 C 1844.071 3098.388, 1837.181 3098, 1821.290 3098 L 1800 3098 1800 3144 M 1891.177 3099.333 C 1891.355 3100.067, 1898.461 3120.767, 1906.970 3145.333 L 1922.439 3190 1929.613 3190 C 1935.513 3190, 1936.909 3189.689, 1937.481 3188.250 C 1937.863 3187.287, 1942.696 3173.225, 1948.220 3157 C 1953.744 3140.775, 1958.577 3127.149, 1958.961 3126.721 C 1959.344 3126.292, 1964.573 3140.372, 1970.579 3158.008 L 1981.500 3190.074 1988.883 3189.787 L 1996.267 3189.500 2004.543 3165.500 C 2009.094 3152.300, 2016.208 3131.713, 2020.351 3119.750 L 2027.884 3098 2019.192 3098.010 L 2010.500 3098.020 2000 3131 C 1994.225 3149.139, 1989.267 3163.984, 1988.983 3163.990 C 1988.699 3163.995, 1983.531 3149.150, 1977.500 3131 L 1966.534 3098 1959.500 3098 L 1952.466 3098 1941.500 3131 C 1935.469 3149.150, 1930.301 3163.992, 1930.017 3163.982 C 1929.733 3163.973, 1924.775 3149.129, 1919 3130.996 L 1908.500 3098.027 1899.677 3098.013 C 1892.824 3098.003, 1890.926 3098.298, 1891.177 3099.333 M 2136 3144 L 2136 3190 2144 3190 L 2152 3190 2152 3174 L 2152 3158 2162.274 3158 L 2172.549 3158 2183.503 3173.619 C 2189.528 3182.210, 2194.953 3189.429, 2195.558 3189.661 C 2196.163 3189.893, 2200.556 3189.952, 2205.319 3189.791 L 2213.980 3189.500 2201.990 3172.564 C 2195.396 3163.249, 2190 3155.508, 2190 3155.361 C 2190 3155.214, 2191.935 3154.237, 2194.301 3153.191 C 2200.016 3150.663, 2205.618 3145.624, 2208.306 3140.595 C 2211.493 3134.631, 2211.480 3119.345, 2208.282 3113.357 C 2205.042 3107.292, 2198.634 3102.276, 2191.186 3099.976 C 2185.556 3098.237, 2181.865 3098, 2160.395 3098 L 2136 3098 2136 3144 M 2457 3144 L 2457 3190 2475.750 3189.992 C 2486.063 3189.988, 2497.361 3189.521, 2500.859 3188.953 C 2532.387 3183.837, 2549.258 3150.216, 2534.443 3122.023 C 2530.345 3114.225, 2525.779 3109.492, 2517.657 3104.622 C 2508.612 3099.198, 2501.354 3098, 2477.553 3098 L 2457 3098 2457 3144 M 2559 3144 L 2559 3190 2593.500 3190 L 2628 3190 2628 3182.500 L 2628 3175 2602 3175 L 2576 3175 2576 3163 L 2576 3151 2599 3151 L 2622 3151 2622 3143.500 L 2622 3136 2599 3136 L 2576 3136 2576 3124 L 2576 3112 2601.500 3112 L 2627 3112 2627 3105 L 2627 3098 2593 3098 L 2559 3098 2559 3144 M 2647 3143.927 L 2647 3190 2655 3190 L 2663 3190 2663 3174 L 2663 3158 2673.348 3158 L 2683.697 3158 2694.938 3174 L 2706.180 3190 2715.590 3190 C 2720.765 3190, 2725 3189.783, 2725 3189.517 C 2725 3189.251, 2719.916 3181.939, 2713.703 3173.267 C 2707.490 3164.595, 2702.075 3156.956, 2701.670 3156.292 C 2701.179 3155.486, 2702.619 3154.359, 2705.996 3152.906 C 2712.093 3150.283, 2719.133 3142.837, 2720.811 3137.236 C 2724.191 3125.956, 2721.082 3112.792, 2713.459 3106.098 C 2705.228 3098.871, 2703.551 3098.537, 2673.750 3098.177 L 2647 3097.855 2647 3143.927 M 2742 3144.034 L 2742 3190.189 2769.250 3189.769 C 2791.837 3189.420, 2797.270 3189.055, 2801 3187.635 C 2808.135 3184.919, 2812.673 3181.413, 2815.667 3176.305 C 2819.469 3169.817, 2819.624 3159.618, 2816.018 3153.228 C 2813.770 3149.245, 2805.921 3143, 2803.162 3143 C 2801.314 3143, 2801.708 3142.387, 2806.882 3137.214 C 2810.813 3133.282, 2811.987 3131.290, 2812.912 3126.973 C 2815.353 3115.594, 2810.359 3105.666, 2799.794 3100.892 C 2794.712 3098.596, 2793.448 3098.488, 2768.250 3098.189 L 2742 3097.879 2742 3144.034 M 2824 3098.474 C 2824 3098.734, 2832.100 3111.260, 2842 3126.308 L 2860 3153.669 2860 3171.835 L 2860 3190 2868 3190 L 2876 3190 2876 3171.818 L 2876 3153.636 2894 3126.527 C 2903.900 3111.617, 2912 3099.082, 2912 3098.672 C 2912 3098.261, 2907.868 3098.054, 2902.818 3098.212 L 2893.636 3098.500 2881.080 3118.226 C 2871.578 3133.152, 2868.254 3137.654, 2867.419 3136.726 C 2866.811 3136.052, 2861.025 3127.063, 2854.560 3116.750 L 2842.805 3098 2833.403 3098 C 2828.231 3098, 2824 3098.213, 2824 3098.474 M 2758.219 3124.250 L 2758.500 3136.500 2771 3136.500 C 2777.875 3136.500, 2785.170 3136.145, 2787.211 3135.712 C 2800.108 3132.973, 2800.373 3116.346, 2787.571 3113.122 C 2785.120 3112.505, 2777.450 3112, 2770.526 3112 L 2757.938 3112 2758.219 3124.250 M 1721 3128.067 L 1721 3143.135 1737.430 3142.817 C 1752.251 3142.531, 1754.137 3142.295, 1756.680 3140.408 C 1766.619 3133.034, 1766.298 3120.424, 1756.038 3115.250 C 1751.991 3113.209, 1750.154 3113, 1736.288 3113 L 1721 3113 1721 3128.067 M 1816 3144.096 L 1816 3175.192 1829.750 3174.846 C 1842.420 3174.527, 1843.949 3174.280, 1849.214 3171.694 C 1860.058 3166.369, 1866 3156.565, 1866 3144 C 1866 3134.395, 1863.591 3128.431, 1857.080 3121.920 C 1849.571 3114.411, 1845.020 3113, 1828.318 3113 L 1816 3113 1816 3144.096 M 2152 3128 L 2152 3143 2167.032 3143 C 2183.741 3143, 2186.949 3142.226, 2191.203 3137.171 C 2197.243 3129.993, 2195.078 3119.153, 2186.806 3115.148 C 2182.864 3113.240, 2180.674 3113, 2167.184 3113 L 2152 3113 2152 3128 M 2473 3144 L 2473 3175 2484.395 3175 C 2499.461 3175, 2506.961 3172.804, 2513.460 3166.487 C 2520.097 3160.037, 2522.332 3154.429, 2522.425 3144 C 2522.490 3136.618, 2522.130 3134.747, 2519.689 3129.776 C 2516.315 3122.905, 2510.570 3117.731, 2503.292 3115.008 C 2498.972 3113.392, 2495.493 3113, 2485.462 3113 L 2473 3113 2473 3144 M 2663 3128.067 L 2663 3143.135 2679.430 3142.817 C 2694.179 3142.532, 2696.143 3142.289, 2698.619 3140.438 C 2702.994 3137.167, 2705.185 3133.567, 2705.665 3128.864 C 2706.288 3122.741, 2703.688 3118.099, 2698.038 3115.250 C 2693.991 3113.209, 2692.154 3113, 2678.288 3113 L 2663 3113 2663 3128.067 M 2064.500 3134.685 C 2060.650 3143.833, 2057.350 3151.696, 2057.167 3152.159 C 2056.983 3152.621, 2063.807 3153, 2072.331 3153 L 2087.829 3153 2080.290 3135.500 C 2076.143 3125.875, 2072.469 3118.012, 2072.125 3118.027 C 2071.781 3118.041, 2068.350 3125.538, 2064.500 3134.685 M 2262.733 3135.448 L 2255.171 3153 2270.586 3153 C 2279.063 3153, 2286 3152.796, 2286 3152.547 C 2286 3151.620, 2271.822 3119.470, 2271.073 3118.698 C 2270.645 3118.256, 2266.892 3125.794, 2262.733 3135.448 M 2758 3162.399 L 2758 3175 2774.480 3175 C 2792.585 3175, 2797.504 3173.933, 2800.504 3169.353 C 2802.643 3166.089, 2802.661 3159.657, 2800.540 3156.421 C 2797.442 3151.692, 2793.060 3150.635, 2774.750 3150.198 L 2758 3149.798 2758 3162.399" stroke="none" fill="black" fill-rule="evenodd"/>
</svg>